<?xml version="1.0" encoding="utf-8"?>
<!-- Generator: Adobe Illustrator 17.0.0, SVG Export Plug-In . SVG Version: 6.00 Build 0)  -->
<!DOCTYPE svg PUBLIC "-//W3C//DTD SVG 1.1//EN" "http://www.w3.org/Graphics/SVG/1.1/DTD/svg11.dtd">
<svg version="1.1" id="Layer_1" xmlns="http://www.w3.org/2000/svg" xmlns:xlink="http://www.w3.org/1999/xlink" x="0px" y="0px"
	 width="110.453px" height="85.703px" viewBox="-15.458 6.579 110.453 85.703"
	 enable-background="new -15.458 6.579 110.453 85.703" xml:space="preserve">
<g id="Capa_1">
	<g>
		<path fill="#010002" d="M62.453,49.182v6.547c0,11.176-8.17,20.435-18.843,22.276v6.579h5.785v7.698H30.144v-7.698h5.782v-6.579
			C25.25,76.172,17.098,66.906,17.098,55.729v-6.547c0-2.128,1.723-3.845,3.847-3.845c2.125,0,3.849,1.723,3.849,3.845v6.547
			c0,8.256,6.715,14.967,14.972,14.967c8.268,0,14.986-6.711,14.986-14.967v-6.548c0-2.128,1.723-3.845,3.845-3.845
			C60.727,45.338,62.453,47.053,62.453,49.182z"/>
		<path fill="#010002" d="M39.761,15.807c-6.374,0-11.542,5.157-11.542,11.557v26.487c0,6.369,5.169,11.549,11.542,11.549
			c6.389,0,11.553-5.179,11.553-11.549V27.364C51.314,20.964,46.148,15.807,39.761,15.807z"/>
	</g>
</g>
<path fill="#010002" d="M65.669,44.632c0.311,0,0.603-0.065,0.886-0.169c4.735-1.968,7.809-6.544,7.835-11.641v-0.19
	c0.042-5.117-2.955-9.706-7.66-11.745c-1.162-0.492-2.491,0.039-2.99,1.177c-0.485,1.169,0.039,2.511,1.188,3.003
	c3.014,1.291,4.935,4.275,4.916,7.534v0.2c-0.026,3.259-2.012,6.199-5.022,7.467c-1.159,0.446-1.719,1.794-1.226,2.951
	C63.954,44.101,64.789,44.612,65.669,44.632z"/>
<path fill="#010002" d="M73.666,49.797c0.431,0.68,1.166,1.062,1.923,1.067c0.411,0,0.841-0.118,1.214-0.356
	c6.117-3.806,9.829-10.382,9.861-17.605v-0.188c0.068-7.224-3.541-13.851-9.602-17.747c-1.055-0.677-2.466-0.386-3.136,0.67
	c-0.689,1.051-0.391,2.462,0.676,3.152c4.751,3.071,7.554,8.246,7.521,13.892v0.185c-0.045,5.653-2.929,10.806-7.715,13.783
	C73.32,47.311,73.002,48.714,73.666,49.797z"/>
<path fill="#010002" d="M83.282,58.624c9.132-5.438,14.641-15.021,14.713-25.645v-0.196c0.08-10.612-5.287-20.282-14.35-25.865
	c-1.067-0.66-2.466-0.33-3.143,0.751c-0.653,1.075-0.31,2.479,0.751,3.136c7.692,4.725,12.264,12.942,12.195,21.965v0.179
	c-0.088,8.996-4.757,17.153-12.515,21.76c-1.065,0.649-1.436,2.046-0.78,3.134c0.43,0.711,1.177,1.114,1.949,1.114
	C82.499,58.956,82.896,58.858,83.282,58.624z"/>
<path fill="#010002" d="M13.869,20.904c-0.311,0-0.603,0.065-0.886,0.169c-4.735,1.967-7.809,6.544-7.835,11.641v0.19
	c-0.043,5.118,2.955,9.706,7.66,11.745c1.163,0.493,2.491-0.039,2.99-1.178c0.485-1.169-0.039-2.511-1.188-3.002
	c-3.014-1.291-4.935-4.275-4.916-7.534v-0.2c0.026-3.259,2.012-6.199,5.023-7.468c1.159-0.446,1.719-1.794,1.226-2.951
	C15.584,21.435,14.749,20.924,13.869,20.904z"/>
<path fill="#010002" d="M5.872,15.739c-0.431-0.68-1.166-1.063-1.923-1.068c-0.411,0-0.841,0.117-1.214,0.356
	c-6.118,3.806-9.829,10.382-9.861,17.605v0.188c-0.067,7.224,3.541,13.851,9.603,17.748c1.055,0.677,2.466,0.386,3.136-0.67
	c0.689-1.051,0.391-2.463-0.676-3.152c-4.751-3.071-7.554-8.246-7.521-13.892v-0.185c0.045-5.652,2.929-10.806,7.715-13.782
	C6.218,18.225,6.536,16.822,5.872,15.739z"/>
<path fill="#010002" d="M-3.744,6.912c-9.133,5.438-14.641,15.021-14.713,25.645v0.196c-0.08,10.613,5.288,20.283,14.35,25.865
	c1.068,0.66,2.466,0.33,3.143-0.751c0.653-1.075,0.31-2.479-0.751-3.136c-7.693-4.725-12.264-12.943-12.195-21.965v-0.179
	c0.087-8.996,4.757-17.153,12.515-21.76c1.065-0.649,1.436-2.046,0.78-3.134c-0.43-0.711-1.178-1.114-1.949-1.114
	C-2.961,6.58-3.358,6.678-3.744,6.912z"/>
</svg>
