<?xml version="1.0" encoding="utf-8"?>
<!-- Generator: Adobe Illustrator 17.0.0, SVG Export Plug-In . SVG Version: 6.00 Build 0)  -->
<!DOCTYPE svg PUBLIC "-//W3C//DTD SVG 1.1//EN" "http://www.w3.org/Graphics/SVG/1.1/DTD/svg11.dtd">
<svg version="1.1" id="Layer_1" xmlns="http://www.w3.org/2000/svg" xmlns:xlink="http://www.w3.org/1999/xlink" x="0px" y="0px"
	 width="110.453px" height="85.703px" viewBox="-15.458 6.579 110.453 85.703"
	 enable-background="new -15.458 6.579 110.453 85.703" xml:space="preserve">
<g id="Capa_1">
	<g>
		<path fill="#010002" d="M62.453,49.182v6.547c0,11.176-8.17,20.435-18.843,22.276v6.579h5.785v7.698H30.144v-7.698h5.782v-6.579
			C25.25,76.172,17.098,66.906,17.098,55.729v-6.547c0-2.128,1.723-3.845,3.847-3.845c2.125,0,3.849,1.723,3.849,3.845v6.547
			c0,8.256,6.715,14.967,14.972,14.967c8.268,0,14.986-6.711,14.986-14.967v-6.548c0-2.128,1.723-3.845,3.845-3.845
			C60.727,45.338,62.453,47.053,62.453,49.182z"/>
		<path fill="#010002" d="M39.761,15.807c-6.374,0-11.542,5.157-11.542,11.557v26.487c0,6.369,5.169,11.549,11.542,11.549
			c6.389,0,11.553-5.179,11.553-11.549V27.364C51.314,20.964,46.148,15.807,39.761,15.807z"/>
	</g>
</g>
<path fill="#010002" d="M65.669,44.632c0.311,0,0.603-0.065,0.886-0.169c4.735-1.968,7.809-6.544,7.835-11.641v-0.19
	c0.042-5.117-2.955-9.706-7.66-11.745c-1.162-0.492-2.491,0.039-2.99,1.177c-0.485,1.169,0.039,2.511,1.188,3.003
	c3.014,1.291,4.935,4.275,4.916,7.534v0.2c-0.026,3.259-2.012,6.199-5.022,7.467c-1.159,0.446-1.719,1.794-1.226,2.951
	C63.954,44.101,64.789,44.612,65.669,44.632z"/>
<path fill="#010002" d="M13.869,20.904c-0.311,0-0.603,0.065-0.886,0.169c-4.735,1.967-7.809,6.544-7.835,11.641v0.19
	c-0.043,5.118,2.955,9.706,7.66,11.745c1.163,0.493,2.491-0.039,2.99-1.178c0.485-1.169-0.039-2.511-1.188-3.002
	c-3.014-1.291-4.935-4.275-4.916-7.534v-0.2c0.026-3.259,2.012-6.199,5.023-7.468c1.159-0.446,1.719-1.794,1.226-2.951
	C15.584,21.435,14.749,20.924,13.869,20.904z"/>
</svg>
