<svg fill="#000000" xmlns="http://www.w3.org/2000/svg" xmlns:xlink="http://www.w3.org/1999/xlink" version="1.0" x="0px" y="0px" viewBox="0 0 100 100" enable-background="new 0 0 100 100" xml:space="preserve"><g><circle cx="49.9" cy="81.3" r="6.1"/><path d="M57.7,59.2l-9,9c0.5-0.1,1-0.1,1.5-0.1c3.4,0,6.6,1.3,9,3.7c2,2,5.2,2,7.2,0c2-2,2-5.2,0-7.2   C63.9,62.1,60.9,60.3,57.7,59.2z"/><path d="M91.1,12.5c-2-2-5.2-2-7.2,0L72.3,24.1C65.3,21.4,57.9,20,50.2,20c-16.2,0-31.5,6.3-43,17.8c-2,2-2,5.2,0,7.2   c1,1,2.3,1.5,3.6,1.5s2.6-0.5,3.6-1.5c9.6-9.6,22.3-14.8,35.8-14.8c4.8,0,9.5,0.7,14.1,2l-7.4,7.4c-2.2-0.4-4.4-0.6-6.6-0.6   c-11.2,0-21.7,4.3-29.5,12.2c-2,2-2,5.2,0,7.2c1,1,2.3,1.5,3.6,1.5c1.3,0,2.6-0.5,3.6-1.5c5.2-5.2,12-8.4,19.3-9.1L16.6,79.8   c-2,2-2,5.2,0,7.2c1,1,2.3,1.5,3.6,1.5c1.3,0,2.6-0.5,3.6-1.5l67.3-67.3C93.1,17.7,93.1,14.5,91.1,12.5z"/><path d="M71.8,45l-7.5,7.5c3,1.5,5.8,3.5,8.2,5.9c2,2,5.2,2,7.2,0s2-5.2,0-7.2C77.3,48.8,74.7,46.8,71.8,45z"/><path d="M93.2,37.8c-2.4-2.4-5-4.5-7.7-6.5l-7.3,7.3c2.8,1.8,5.4,4,7.8,6.4c2,2,5.2,2,7.2,0C95.2,43,95.2,39.8,93.2,37.8z"/></g></svg>