<?xml version="1.0" encoding="utf-8"?>
<!-- Generator: Adobe Illustrator 17.0.0, SVG Export Plug-In . SVG Version: 6.00 Build 0)  -->
<!DOCTYPE svg PUBLIC "-//W3C//DTD SVG 1.1//EN" "http://www.w3.org/Graphics/SVG/1.1/DTD/svg11.dtd">
<svg version="1.1" id="Capa_1" xmlns="http://www.w3.org/2000/svg" xmlns:xlink="http://www.w3.org/1999/xlink" x="0px" y="0px"
	 width="385.576px" height="385.576px" viewBox="0 0 385.576 385.576" enable-background="new 0 0 385.576 385.576"
	 xml:space="preserve">
<path d="M256.906,12.304C193.437-17.803,117.581,9.241,87.473,72.708c-30.107,63.467-3.064,139.324,60.403,169.433
	c63.467,30.106,139.325,3.063,169.431-60.403C347.417,118.27,320.374,42.411,256.906,12.304z M282.473,165.211
	c-20.979,44.229-73.843,63.073-118.069,42.094c-44.229-20.979-63.073-73.844-42.093-118.071
	c20.98-44.229,73.844-63.074,118.069-42.094C284.608,68.121,303.454,120.983,282.473,165.211z"/>
<path d="M112.204,251.83L56.649,357.851c-1.684,3.552-0.157,7.834,3.393,9.519l36.938,17.52c3.549,1.687,7.833,0.157,9.516-3.393
	l55.555-106.022"/>
<path d="M135.037,207.83L79.482,313.851c-1.684,3.552-0.157,7.834,3.393,9.519l36.938,17.52c3.549,1.687,7.833,0.157,9.516-3.393
	l55.555-106.022"/>
</svg>
